<?xml version="1.0" encoding="utf-8"?>
<!-- Generator: Adobe Illustrator 23.0.4, SVG Export Plug-In . SVG Version: 6.00 Build 0)  -->
<svg version="1.1" id="Layer_1" xmlns="http://www.w3.org/2000/svg" xmlns:xlink="http://www.w3.org/1999/xlink" x="0px" y="0px"
	 viewBox="0 0 459.63 172.2" style="enable-background:new 0 0 459.63 172.2;" xml:space="preserve">
<style type="text/css">
	.st0{fill:#3CBA94;}
	.st1{fill:#FB9F76;}
	.st2{fill:#F14A44;}
	.st3{fill:#FAC34E;}
	.st4{fill:#01ABE9;}
	.st5{fill:none;}
	.st6{fill:#018BE9;}
	.st7{fill:#FA8D4E;}
	.st8{fill:#E5775E;}
</style>
<g>
	<g>
		<polygon class="st0" points="403.68,148.71 406.12,146.62 413.79,147.67 410.83,149.41 		"/>
		<polygon class="st0" points="455.62,113.32 459.63,115.5 459.63,105.13 455.62,105.13 		"/>
		<polygon class="st1" points="80.84,9.13 79.48,17.57 84.77,17.87 85.07,8.75 		"/>
		<polygon class="st2" points="240.5,24.76 248.42,28.01 249.91,22.92 241.1,20.56 		"/>
		<polygon class="st2" points="173.69,10.66 176.66,12.21 182.9,6.02 178.67,4.36 		"/>
		<polygon class="st3" points="7.87,169.2 14.31,172.2 14.25,163.69 10.52,163.71 		"/>
		<polygon class="st3" points="276.77,97.24 282.52,101.43 284.09,93.06 280.43,92.37 		"/>
		<polygon class="st3" points="80.81,72.21 85.16,73.57 83.17,63.4 79.24,64.17 		"/>
		<polygon class="st4" points="211.67,58.36 218.81,63.06 221.25,58.36 213.06,54.35 		"/>
		<polygon class="st4" points="396.27,41.58 402.02,45.76 403.59,37.39 399.93,36.7 		"/>
		<polygon class="st4" points="336.4,80.09 342.15,84.27 343.72,75.9 340.06,75.21 		"/>
		<polygon class="st4" points="30.87,43.75 31.3,37.8 35.27,39.96 35.03,44.18 		"/>
		<polygon class="st4" points="136.77,98.87 139.73,100.42 145.98,94.23 141.75,92.57 		"/>
		<path class="st5" d="M78.66,30.85c-0.08-0.05-0.14-0.09-0.22-0.14C78.52,30.75,78.59,30.8,78.66,30.85z"/>
		<path class="st2" d="M78.8,30.94L78.8,30.94c-0.04-0.04-0.09-0.06-0.14-0.09C78.71,30.88,78.75,30.91,78.8,30.94z"/>
		<g>
			<path class="st6" d="M290.65,25.08c5.01,10.61,39.31,26.53,46.31,11.36c9.09-19.69-26.52-33.85-35.53-30.65l-1.46,2.13
				c0,0,18.02-1.14,29.81,9.53c8.68,7.85,8.17,15.56,4.71,19.01c-3.46,3.45-13.03,4.15-23.07,0.99
				c-10.05-3.15-18.29-13.8-18.29-13.8l-0.9,0.81L290.65,25.08z"/>
			<path class="st6" d="M297.99,56.99l1.77-3.1c0,0,10,4.46,12.07-1.72c2.07-6.19-8.27-9.14-8.27-9.14l2.32-0.81
				c0,0,11.24,1.34,7.45,11.08C309.53,63.02,297.99,56.99,297.99,56.99z"/>
			<path class="st4" d="M303.56,43.03c-2.89,1.73,5.56,14.55,15.24,8.82c9.68-5.73-0.44-19.43-9.81-25.62
				c-9.36-6.19-15.89-3.55-15.89-3.55l-2.45,2.41c0,0,9.95-2.29,18.49,4.05c8.54,6.34,12.37,12.38,11.65,17.98
				c-0.84,6.51-17.16,5.06-14.91-4.17L303.56,43.03z"/>
			<path class="st6" d="M335,8.56c1.41,5.47,18.3,12.96,23.42,3.61C363.55,2.83,355.99,0,355.99,0l-0.42,2.01
				c0,0,5.05,3.26,0.83,9.42c-4.22,6.16-15.61,2.68-19.12-4.16L335,8.56z"/>
			<path class="st4" d="M299.97,7.93c7.65,16.51,37.41,24.79,44.65,13.93c7.25-10.86-1.77-18.89-8.17-15.17L335,8.56
				c0,0,8.02-1.94,9.84,3.65c1.82,5.59-1.44,11.34-11.34,12.31c-9.89,0.97-28.3-8.79-31.46-17.87L299.97,7.93z"/>
		</g>
		<g>
			<path class="st7" d="M377.97,99.48c0.88,11.64,17.49,15.03,24.02,4.04c6.53-11,1.67-29.37-18.08-29.21l-2.44,2.5
				c0,0,11.46-1.26,18.16,9.21c6.7,10.48-2.14,19.09-5.34,20.67c-3.2,1.58-12.29,0.14-13.05-10.68L377.97,99.48z"/>
			<path class="st3" d="M374.57,111.13l0.45,6.86c0,0,13.87-0.13,16.08-9.71c2.21-9.59-3.3-13.59-9.85-12.26l-3.29,3.47
				c0,0,10.78-3.87,10.93,4.53C389.06,112.43,374.57,111.13,374.57,111.13z"/>
			<path class="st3" d="M381.47,76.81c7.38,17.51,27.05,25.62,36.35,5.74l-4.47-3.68c0,0-0.03,15.97-16.23,10.56
				c-10.06-3.36-13.22-15.11-13.22-15.11L381.47,76.81z"/>
		</g>
		<g>
			<path class="st8" d="M137.27,49.15c9.43-6.24,18.67-1.23,18.26,7.56c-0.41,8.79-10.03,5.88-10.03,5.88l1.24-3.17
				c0,0,6.6,2.42,6.61-2.28c0.01-4.71-2.34-7.88-6.23-8.71c-3.89-0.84-9.91,3.8-9.91,3.8L137.27,49.15z"/>
			<path class="st1" d="M126.16,33.88l-0.93-4.75c0,0,23.84-9.51,30.52,7.61c7.48,19.16-8.73,22.75-18.54,15.48l0.06-3.08
				c0,0,13.92,8.56,17.41-0.83c3.49-9.39-5.64-18.63-10.71-19.39C133.95,27.42,126.16,33.88,126.16,33.88z"/>
		</g>
		<g>
			<path class="st6" d="M0.08,112.58C-1.35,96.46,15.91,82.48,28.07,88.1s6.35,23.66-2.33,24.12l-3.79-1.21
				c0,0,15.37-6.68,8.29-18.25c-5.37-8.77-20.12-0.17-23.21,4.97c-4.75,7.89-2.81,16.63-2.81,16.63L0.08,112.58z"/>
			<path class="st6" d="M31.35,115.91c-1.3-7.89,14.95-17.04,19.69-3.22c4.74,13.82,1.93,19.44,11.37,18.61l-1.56,4.03
				c0,0-8.46,2.24-9.61-9.17c-1.14-11.4-3.66-19.02-10.51-17.35c-6.85,1.67-6.42,8.99-6.42,8.99L31.35,115.91z"/>
			<path class="st4" d="M5.85,85.03l-4.6-0.73c0,0,1.57-11.88,15.12-8.25c13.55,3.63,5.87,31.57-12.14,38.31l-4.14-1.77
				c0,0,13.44-3.55,18.62-18.91C24.46,76.63,10.61,73.05,5.85,85.03z"/>
			<path class="st4" d="M21.95,111.01c-1.54-10.41,9.04-21.93,20.42-15.52c11.38,6.41,3.8,22.72-8.05,22.31l-2.96-1.89
				c0,0,7.06-1.14,10.95-4.42c4-3.37,4.1-10.32-1.66-13.65c-14.49-8.39-14.91,14.38-14.91,14.38L21.95,111.01z"/>
		</g>
	</g>
</g>
</svg>
